<?xml version="1.0" encoding="UTF-8" standalone="no"?>
<!-- Created with Inkscape (http://www.inkscape.org/) -->

<svg
   xmlns:dc="http://purl.org/dc/elements/1.1/"
   xmlns:cc="http://creativecommons.org/ns#"
   xmlns:rdf="http://www.w3.org/1999/02/22-rdf-syntax-ns#"
   xmlns:svg="http://www.w3.org/2000/svg"
   xmlns="http://www.w3.org/2000/svg"
   xmlns:sodipodi="http://sodipodi.sourceforge.net/DTD/sodipodi-0.dtd"
   xmlns:inkscape="http://www.inkscape.org/namespaces/inkscape"
   width="250"
   height="276.5798"
   id="svg2831"
   version="1.1"
   inkscape:version="0.47 r22583"
   sodipodi:docname="Neues Dokument 1">
  <defs
     id="defs2833">
    <inkscape:perspective
       sodipodi:type="inkscape:persp3d"
       inkscape:vp_x="0 : 526.18109 : 1"
       inkscape:vp_y="0 : 1000 : 0"
       inkscape:vp_z="744.09448 : 526.18109 : 1"
       inkscape:persp3d-origin="372.04724 : 350.78739 : 1"
       id="perspective2839" />
    <inkscape:perspective
       id="perspective2849"
       inkscape:persp3d-origin="0.5 : 0.33333333 : 1"
       inkscape:vp_z="1 : 0.5 : 1"
       inkscape:vp_y="0 : 1000 : 0"
       inkscape:vp_x="0 : 0.5 : 1"
       sodipodi:type="inkscape:persp3d" />
  </defs>
  <sodipodi:namedview
     id="base"
     pagecolor="#ffffff"
     bordercolor="#666666"
     borderopacity="1.0"
     inkscape:pageopacity="0.0"
     inkscape:pageshadow="2"
     inkscape:zoom="1.4"
     inkscape:cx="217.92727"
     inkscape:cy="162.48512"
     inkscape:document-units="px"
     inkscape:current-layer="g2853"
     showgrid="false"
     inkscape:window-width="1085"
     inkscape:window-height="761"
     inkscape:window-x="1814"
     inkscape:window-y="105"
     inkscape:window-maximized="0" />
  <metadata
     id="metadata2836">
    <rdf:RDF>
      <cc:Work
         rdf:about="">
        <dc:format>image/svg+xml</dc:format>
        <dc:type
           rdf:resource="http://purl.org/dc/dcmitype/StillImage" />
        <dc:title></dc:title>
      </cc:Work>
    </rdf:RDF>
  </metadata>
  <g
     inkscape:label="Ebene 1"
     inkscape:groupmode="layer"
     id="layer1"
     transform="translate(-21.907856,201.56248)">
    <g
       transform="matrix(1.25,0,0,-1.25,-170.61893,729.97197)"
       inkscape:label="ink_ext_XXXXXX"
       id="g2851">
      <g
         transform="matrix(0.1,0,0,0.1,2.5714285,23.428571)"
         id="g2853">
        <path
           id="path2857"
           style="fill:#231f20;fill-opacity:1;fill-rule:evenodd;stroke:none"
           d="m 2807.7813,6991.5622 706.7187,0 0,-1986.2108 -2000,0 0,1986.2108 699.8716,3.4235 c 20.5887,10.2706 44.6008,13.7417 68.613,17.1652 l 3.376,6.847 c -20.5411,3.4711 -34.2827,10.2706 -34.2827,10.2706 0,0 24.0121,10.3181 54.8713,10.3181 l -3.3759,3.4235 c -3.4711,3.4711 -6.8946,-3.4235 -13.7416,3.4711 -27.4833,20.5886 10.2705,71.9889 10.2705,71.9889 -10.2705,-47.9768 20.5887,-54.8714 6.847,-71.9889 10.2706,6.7994 13.7417,27.4357 13.7417,41.1297 -3.4711,-3.4235 -20.5887,41.1773 -20.5887,61.766 -3.4235,27.4357 27.4832,68.613 30.8592,68.613 3.4235,-13.7416 6.8946,-24.0122 -3.376,-37.7538 -10.3656,-20.5411 17.1176,-44.6008 17.1176,-75.46 0,-10.3181 0,-10.3181 0,-24.0598 l 3.4236,0 c 27.4832,24.0598 102.8957,51.4954 171.5087,51.4954 75.5076,0 178.4033,-44.6008 223.0041,-123.4843 24.0122,0 41.1773,-3.4711 65.1419,-17.1652 z m 648.3763,-1917.6453 0,943.3693 c -13.6941,17.1651 -37.6587,30.9067 -61.7185,37.7538 -30.8592,13.7416 -78.9311,3.4235 -109.7903,-6.8471 3.4235,6.8471 10.3181,13.7416 20.5887,17.1652 -10.2706,54.8713 -51.4954,99.4722 -92.6252,133.7549 58.3425,-10.2706 102.8957,-68.613 126.9079,-120.0609 41.1773,10.2706 82.3546,0 116.6374,-17.1176 l 0,874.7088 -555.7511,-3.376 c 27.4833,-34.3302 51.4954,-72.084 65.237,-116.6373 61.6709,0 123.4369,-54.8714 140.602,-113.2138 0,-13.7417 13.6941,-27.4357 3.4235,-37.7538 -20.5886,58.3424 -75.46,109.7903 -137.226,113.2138 l -3.3759,-24.0122 -3.4236,0 c -10.3181,20.5887 -10.3181,44.6009 -17.2126,68.5655 -30.8592,75.5076 -102.8958,130.4265 -178.3558,147.5441 0,-17.1176 17.2127,-30.8592 10.3181,-48.0244 -30.9068,58.3425 -85.7781,120.0609 -147.5441,147.5441 -96.0487,41.1298 -198.9444,27.4357 -284.7225,-24.0121 l 3.471,-13.7417 c 0,-6.8945 -10.3181,-3.471 -17.2127,-3.471 -3.4235,-65.142 -3.4235,-140.602 0,-205.839 -3.4235,-6.7995 -13.694,0 -10.2705,-6.7995 6.847,-17.1651 -13.7416,-10.3181 -17.1652,-13.7416 3.4236,-27.4357 17.1652,-54.8714 13.7417,-89.2017 30.9067,-24.0122 44.6008,-58.2949 78.9311,-78.8835 -17.1652,17.1176 17.1176,41.1773 -13.7417,54.8713 -20.5886,20.5887 -10.2705,51.4479 -13.7416,78.9311 3.4711,17.1176 6.8471,37.7063 24.0122,48.0244 0,6.7995 -3.4235,13.6941 0,20.5886 6.847,13.6941 20.5887,27.4357 37.7538,27.4357 30.8592,-10.3181 71.989,0 102.8957,-10.3181 44.6008,-10.2705 20.5887,-65.1895 44.6008,-89.2016 3.4711,-30.8592 13.7417,-72.0365 -20.5411,-92.5776 -6.8945,-3.4711 -17.2127,-6.8946 -10.3656,-17.1652 17.1651,-10.2705 34.3778,-13.7416 54.9189,-13.7416 l 37.7538,-34.2827 c 13.6941,-27.4357 30.8592,-51.4479 30.8592,-82.3546 -68.613,-37.7063 -147.4965,-78.8836 -212.686,-137.226 -34.3303,51.4954 -30.8592,120.0608 -34.3303,185.2503 l 6.8946,6.8946 c 20.5886,-44.6484 41.1773,-89.2492 58.3424,-133.8025 -17.1651,65.1419 48.0244,106.3668 54.8714,161.2382 -17.2127,-20.5887 -30.8592,-44.6009 -51.4954,-65.1895 l -3.376,-37.7538 c -24.0121,27.4832 -48.0719,58.3424 -65.237,92.6252 10.3181,10.3181 20.5887,13.7416 30.9068,17.1651 l 27.4357,-17.1651 c -3.4711,6.847 -6.8946,20.5886 0,27.4357 20.5411,3.4235 13.7416,24.0121 13.7416,41.1773 -3.4711,-3.4235 -10.3657,0 -13.7416,6.8946 -3.4711,6.7994 3.3759,13.694 6.8945,17.1175 6.8471,3.4236 17.1176,-6.847 13.6466,6.8946 -3.376,0 -17.1652,0 -20.5411,10.2706 10.2705,10.2705 0,27.4357 6.8945,41.1773 -10.3656,10.3181 -41.2248,10.3181 -30.9067,34.2827 6.8946,20.5887 27.3881,20.5887 41.1773,20.5887 13.7416,0 24.0122,-17.1652 27.3881,-27.4357 0,-27.4357 17.2127,-65.1895 -3.3759,-89.2017 6.847,3.4235 27.4357,-3.4235 34.3302,10.3181 10.2706,17.1176 3.376,41.1298 3.376,58.2949 -6.847,17.1652 -20.5887,34.2827 -13.7416,51.4479 3.4711,17.1176 -13.6941,20.5886 -23.9646,30.9067 -17.1652,3.4236 -37.8014,6.8471 -54.919,-3.471 -10.2705,10.3181 -30.8592,6.8946 -44.6008,3.471 -10.2705,-3.471 -17.1651,-17.1651 -13.6465,-30.9067 l -13.7416,-20.5887 c 6.847,-30.8592 -20.6362,-58.2949 0,-82.307 3.3759,-17.1652 44.5532,-24.0598 17.1176,-44.6009 -6.8946,-10.3181 3.3759,-24.0121 6.8945,-37.7538 l -13.7891,-13.694 c -27.3882,17.1176 -44.5533,37.7538 -65.142,61.7184 l -6.847,0 c 3.4235,10.2705 -10.2706,24.0122 -17.1651,34.3303 l 0,-20.5887 c 27.4357,-27.4357 58.2949,-54.9189 75.46,-85.7781 0,-17.1176 -6.7995,-34.2828 -13.6941,-44.5533 -27.4357,44.5533 -51.4954,89.1541 -85.7781,133.7549 6.8946,58.2949 -13.6941,109.7903 -6.847,164.6617 6.847,13.7416 17.1175,24.0122 17.1175,37.7538 0,6.847 0,17.1176 6.8946,20.5411 l 3.376,-61.7184 3.4711,0 0,181.7793 -6.8471,0 0,-37.7063 -30.8592,0 c -34.3778,-17.1651 -17.1651,-61.7184 -24.0122,-89.2016 27.3882,-58.2949 0,-144.0255 6.8471,-209.2625 27.3881,-54.8714 61.7659,-109.7428 102.8957,-164.6142 l 10.2706,-130.3789 c 6.8945,-20.5887 41.1297,-27.4357 34.3778,-48.0244 -3.5186,-3.4235 -6.8946,-3.4235 -13.7416,-6.8946 -17.1652,17.2127 -34.3303,27.4833 -44.6009,48.0244 l -6.8945,137.2735 c -20.5412,30.8592 -48.0244,65.142 -68.613,99.4247 -54.919,61.7659 -27.4357,164.6617 -20.5412,243.5928 -27.4832,27.4357 -3.471,68.613 -6.8945,102.8957 -75.4601,-20.5411 -150.9677,-78.8836 -178.4033,-154.3436 -6.8471,-20.5886 -6.8471,-44.6008 -17.1176,-61.7184 -3.4711,6.7995 -3.4711,17.1176 -3.4711,23.9646 -17.1176,-3.4235 -37.7538,-10.2705 -58.2949,-20.5411 -41.1298,-20.6362 -65.1895,-61.766 -75.46,-102.9433 -3.4236,20.5411 3.4235,44.6009 10.2705,61.7184 27.4357,54.919 82.3546,85.7782 133.85,99.5198 10.2231,41.1298 30.8593,78.8836 61.7185,113.2138 l -548.904,3.376 0,-871.2852 c 30.8592,10.2705 72.0365,27.4356 109.7427,17.1651 24.0597,44.6008 58.39,92.5776 102.8958,113.2138 10.3656,3.376 17.2602,13.6941 24.1072,3.376 -41.2248,-34.2827 -82.3546,-75.46 -89.2016,-130.3314 6.847,-6.8471 17.1176,-6.8471 20.5886,-17.1652 -51.4954,20.5887 -123.4844,13.7417 -168.1327,-24.0121 l 0,-957.111 298.4166,0 3.4711,102.9433 154.3911,0 0,68.5655 96.0487,-3.4236 0,72.0366 c 0,0 178.3557,65.237 229.8036,147.5441 3.4235,-3.4236 3.4235,-3.4236 6.8946,-6.8471 -34.3303,-61.7659 -85.7781,-116.6373 -150.9201,-140.697 l 236.6507,0 c -13.6941,-24.0122 -34.2827,-37.7063 -48.0244,-61.7185 3.4711,-13.694 34.3303,-3.471 44.6009,-6.8945 17.1651,20.6362 37.7538,44.6008 48.0243,61.7659 -3.376,0 -6.8946,0 -10.2705,6.8471 78.8835,106.3668 68.613,267.6049 41.1773,394.5128 23.9646,51.4479 27.4357,120.0609 13.7416,171.5087 -6.8946,41.1774 -54.9189,82.3547 -20.6362,123.532 10.2705,10.2705 24.0121,13.7416 37.7538,6.8946 44.6008,-24.0598 30.8592,-82.3547 41.1297,-123.532 10.3657,27.4357 13.7416,54.8714 20.6362,82.3546 -6.8946,34.2828 -6.8946,72.0366 -24.0121,106.3193 -13.7417,68.613 -102.8958,106.3668 -89.2492,188.6739 6.8945,30.8592 20.6362,65.1894 54.9664,75.46 48.0244,-10.2706 89.1541,-41.1298 113.1663,-85.7781 10.2706,-10.2706 0,-48.0244 27.4833,-34.2828 10.2705,0 17.1175,10.2706 24.0121,20.5887 34.2828,48.0243 -17.2127,82.3071 -34.3778,120.1084 l 0,6.7995 c 24.0122,-17.1176 44.6484,-44.6008 65.237,-65.142 0,-27.4356 0,-54.8713 -17.2127,-72.084 -13.6465,-17.1176 -34.2827,-20.5411 -51.4003,-20.5411 17.1176,-68.613 13.7417,-137.226 20.5411,-209.2625 l 6.8471,-10.3181 c 20.6362,-65.142 0,-144.0731 10.3656,-216.1096 23.9646,-85.7781 3.376,-198.992 17.1176,-295.0407 3.4235,-37.7062 6.847,-75.46 27.4357,-102.8957 20.5887,-20.5886 48.0719,-27.4357 72.0365,-27.4357 0,-6.847 6.8471,-17.1651 -3.4235,-20.5886 -72.0365,0 -161.2857,24.0122 -198.9444,92.6252 -41.2249,75.5075 -20.5887,174.9322 -37.7538,257.2868 0,-106.3192 -13.7416,-209.2625 -41.1298,-298.4166 68.5655,30.8592 126.9079,-34.3303 188.6263,-51.4954 l 0,-3.4235 c -13.694,-6.8471 -34.3302,0 -47.9767,3.4235 -34.3779,24.0122 -75.4601,27.4357 -116.6374,24.0122 -17.2127,-6.8471 -48.0719,-17.1652 -54.9665,-37.7538 l 13.7416,-3.4236 0,6.8946 3.4711,0 c 0,0 0,-3.471 0,-6.8946 l 13.7416,0 c 30.8117,-17.1175 54.8714,-37.7062 82.3071,-58.2949 3.4235,-27.4356 -30.9068,-6.8945 -34.2827,-17.1651 l -3.4711,3.4711 c 0,-10.3181 -3.4235,-24.0597 0,-37.7538 6.847,-10.3181 13.7416,-27.4833 27.4357,-30.8592 37.7538,-6.8946 44.5533,47.9768 65.1895,75.4125 l 37.7538,0 c 27.3881,0 30.8592,41.1773 51.4954,58.3424 20.4935,17.1651 58.2473,6.847 82.2595,6.847 l 0,-65.1894 75.5076,-3.4236 0,-71.9889 195.5209,0 0,-92.6727 315.5818,0 z m -212.6861,1396.2246 c 17.1652,-75.5076 6.8946,-168.1328 -58.2949,-212.6861 l -44.6008,-30.9067 c 78.8835,65.1895 92.6252,178.4033 61.766,271.0285 -10.2706,37.7062 -44.6009,72.0365 -78.8836,92.6251 61.7184,-10.2705 99.4722,-68.613 120.0133,-120.0608 z m -548.8564,-34.2828 c 17.1651,-6.8945 61.7659,13.6941 58.2949,-24.0597 3.471,-34.2827 6.8946,-72.0365 3.471,-109.7903 l -17.2127,102.9433 c -44.5532,6.847 -78.8835,6.847 -120.0133,17.1176 20.5887,13.7891 47.9768,10.3181 75.4601,13.7891 z m -85.7306,23.9647 6.847,-3.4235 -6.847,3.4235 z m -51.4954,-72.0365 c 6.847,-3.4236 17.1651,-10.2706 20.5886,-17.1176 -13.7416,-6.8946 -34.3303,-10.2706 -48.0719,-13.6941 -20.5411,-6.8946 -27.3881,-51.4954 -54.8238,-27.4832 -6.847,6.847 -13.7416,-17.1652 -27.4832,-6.8471 l 3.4235,10.2706 -20.5411,-13.7416 c -6.8471,6.8945 3.4235,13.7416 3.4235,20.5886 17.1176,13.7416 27.4357,48.0244 58.3424,41.1773 20.5411,0 41.1298,13.6941 65.142,6.8471 z m -144.0255,-336.1705 c -3.5186,-185.2503 44.5533,-404.7834 -30.9068,-566.0215 l 0,-3.4236 0,3.4236 c -20.6362,185.2503 -13.7416,377.3477 24.0122,552.3275 l 6.8946,13.694 z m -34.3778,17.1652 c -10.2706,3.4235 -13.6941,17.1176 -17.1652,24.0121 10.3181,34.3303 24.0597,65.1895 37.8014,96.0487 -3.4711,-37.7062 -13.7417,-78.9311 -20.6362,-120.0608 z m -27.3882,150.92 c 17.1176,24.0598 44.5533,51.4955 68.5179,68.613 l -61.7184,-92.5776 c -6.7995,6.7995 -6.7995,17.1176 -6.7995,23.9646 z m 61.766,281.2991 c 0,-30.8592 6.7519,-68.613 10.2705,-99.4722 -48.0243,20.5411 -10.2705,65.1895 -13.7891,99.4722 l 3.5186,0 z m -514.5737,85.7781 c -51.4955,-37.7538 -85.7782,-96.0962 -89.2492,-161.2382 -3.376,-78.8835 20.5886,-150.9676 75.5075,-202.4154 -68.613,37.7538 -109.7903,109.7903 -106.4143,188.6738 0,68.613 37.8013,133.8025 99.5198,168.1328 6.8945,0 13.7416,6.847 20.6362,6.847 z m 401.3123,391.0418 c 3.4711,-20.5411 -24.0122,-6.847 -24.0122,-23.9646 -3.471,13.6941 3.4236,23.9646 13.7417,27.4357 3.3759,3.4235 6.847,0 10.2705,-3.4711 z m -6.8946,-27.4357 c 3.4711,6.8946 10.3657,6.8946 17.1652,3.4711 -13.6941,0 -3.4236,-17.2127 -10.2706,-24.0122 -10.2705,0 -10.2705,13.6941 -6.8946,20.5411 z m 175.0274,-250.3923 c -10.3181,0 -13.7417,13.6941 -20.6362,20.5411 0,6.8946 -3.4236,13.7417 6.8945,17.1652 6.8471,0 17.1176,0 20.5887,-10.2706 0,-10.3181 0,-20.5886 -6.847,-27.4357 z m -109.8379,418.4775 c 6.8946,24.0122 -37.7062,41.2249 -6.7995,61.766 10.223,-3.4235 13.6941,-20.5411 17.1176,-30.8592 l -10.3181,-30.9068"
           sodipodi:nodetypes="ccccccccccccccccccsccsccccccccccccccccccccccccccsccccccsccccccccccccccccccccssccccscccccccsccccccccccccccscccccccccccccccccccccscccccccccccccccccccccccccccccccccccccccccccccccccccccccccccccccccccccccsccccccccccccccccccccccccccccccccccccccccccccccccccccccccccccccccccccccccc" />
      </g>
    </g>
  </g>
</svg>
