<?xml version="1.0" encoding="UTF-8" standalone="no"?>
<!-- Created with Inkscape (http://www.inkscape.org/) -->

<svg
   xmlns:dc="http://purl.org/dc/elements/1.1/"
   xmlns:cc="http://creativecommons.org/ns#"
   xmlns:rdf="http://www.w3.org/1999/02/22-rdf-syntax-ns#"
   xmlns:svg="http://www.w3.org/2000/svg"
   xmlns="http://www.w3.org/2000/svg"
   xmlns:sodipodi="http://sodipodi.sourceforge.net/DTD/sodipodi-0.dtd"
   xmlns:inkscape="http://www.inkscape.org/namespaces/inkscape"
   version="1.0"
   width="500"
   height="368.63412"
   id="svg2811"
   inkscape:version="0.47 r22583"
   sodipodi:docname="Twentieth Century-Fox Film Corporation.svg">
  <metadata
     id="metadata16">
    <rdf:RDF>
      <cc:Work
         rdf:about="">
        <dc:format>image/svg+xml</dc:format>
        <dc:type
           rdf:resource="http://purl.org/dc/dcmitype/StillImage" />
      </cc:Work>
    </rdf:RDF>
  </metadata>
  <sodipodi:namedview
     pagecolor="#ffffff"
     bordercolor="#666666"
     borderopacity="1"
     objecttolerance="10"
     gridtolerance="10"
     guidetolerance="10"
     inkscape:pageopacity="0"
     inkscape:pageshadow="2"
     inkscape:window-width="1680"
     inkscape:window-height="988"
     id="namedview14"
     showgrid="false"
     inkscape:zoom="0.73871"
     inkscape:cx="247.91241"
     inkscape:cy="318.9039"
     inkscape:window-x="1672"
     inkscape:window-y="-8"
     inkscape:window-maximized="1"
     inkscape:current-layer="svg2811" />
  <defs
     id="defs2813">
    <inkscape:perspective
       sodipodi:type="inkscape:persp3d"
       inkscape:vp_x="0 : 225.90353 : 1"
       inkscape:vp_y="0 : 1000 : 0"
       inkscape:vp_z="588.18896 : 225.90353 : 1"
       inkscape:persp3d-origin="294.09448 : 150.60236 : 1"
       id="perspective18" />
    <clipPath
       id="clp17">
      <path
         d="m 381.82,46.21 18.4,0 0,17.356 -18.4,0 0,-17.356 z"
         id="path388" />
    </clipPath>
    <clipPath
       id="clp12">
      <path
         d="m 45.315,71.927 12.92,0 0,15.867 -12.92,0 0,-15.867 z"
         id="path184" />
    </clipPath>
    <clipPath
       id="clp21">
      <path
         d="m 123.91,72.178 26.23,0 0,15.294 -26.23,0 0,-15.294 z"
         id="path592" />
    </clipPath>
    <clipPath
       id="clp9">
      <path
         d="m 413.96,49.857 31.76,0 0,8.719 -31.76,0 0,-8.719 z"
         id="path100" />
    </clipPath>
  </defs>
  <path
     style="fill:#000000;fill-opacity:1;fill-rule:nonzero;stroke:none"
     d="m 0,0 0,368.63412 500,0 L 500,0 0,0 z m 5.573809,4.987092 68.851209,0 -8.918095,239.263088 c -0.930016,1.41422 0.358416,3.27069 2.405539,3.75499 1.302417,0.4658 3.714011,-0.46843 5.016428,-2.34688 l 43.91575,-240.671198 253.46163,0 11.70499,50.956353 -27.72236,-11.32364 c -3.72185,0.95001 -6.13499,1.43136 -9.85684,2.84558 l 0,16.51608 c -23.26102,-8.96973 -45.39582,-20.29379 -68.46984,-26.90097 -22.70331,-7.06961 -46.3433,0.9434 -62.72002,18.86295 -5.20958,5.67538 -10.05727,10.87866 -12.8491,17.48416 l -7.06994,-3.31495 c -11.35245,-5.19118 -17.86571,-8.49773 -29.77587,-9.44614 -19.35217,-1.41423 -38.68097,11.33921 -47.05468,29.27716 -1.86004,5.17447 -4.84042,9.4268 -4.84042,15.548005 l 0.55739,0.4987 c 8.56071,-1.89852 16.55301,-4.2804 23.99671,-6.160525 1.86003,-5.19118 4.85294,-10.37616 9.50481,-13.6705 4.65187,-3.31274 10.40446,-4.24539 15.98803,-2.34687 2.41784,0.94842 4.28271,2.80047 4.84041,5.16311 0.93171,4.24276 -1.8636,8.02572 -4.28303,10.85426 l -45.41187,52.393805 -5.19245,7.06994 -0.38136,8.50739 79.82281,-18.89228 0,-15.57733 -35.90706,8.03802 0.38136,-1.43745 c 14.70021,-20.74809 46.33598,-38.67013 30.33326,-66.973725 l -2.43488,-2.3762 c 5.20958,1.88012 10.79906,5.65928 15.07862,7.53931 -1.48941,6.13959 -3.34428,10.87876 -3.34428,17.48416 -0.37231,16.507025 7.07594,33.027325 22.14855,39.632715 5.76888,1.41432 10.40413,4.23402 16.54542,3.28562 13.21257,-2.82855 26.98826,-6.10932 40.57146,-9.88618 19.91157,-13.69519 32.55897,-36.345225 28.83713,-60.871865 -1.48773,-9.45233 -4.63371,-14.62492 -11.705,-20.3004 l 52.27646,21.70852 0.55738,42.448965 9.29946,-2.34687 0,-23.586015 c 0.5594,-1.87844 1.85689,-2.38484 2.7869,-3.31495 1.48782,-0.48421 3.00089,0.47284 3.93101,0.93874 0.9317,0.94832 1.46679,1.89716 1.46679,2.84558 l 0,21.708525 c 2.79183,-0.46581 5.59798,-1.4261 8.94743,-2.3762 0,-9.899845 0.3639,-20.287685 -1.49613,-28.309095 l 19.74302,7.56865 9.09411,33.970905 c 0,0.48419 -0.53711,1.40812 -0.90941,1.40812 -7.0713,-2.82854 -12.8568,-6.14476 -20.3004,-8.50739 -8.00141,1.41431 -15.61225,3.29561 -23.61535,5.19244 -28.8429,6.60718 -55.64431,12.74133 -84.48721,19.83102 -40.56776,9.91814 -81.68543,18.86022 -122.6238,28.77846 -14.32969,3.29434 -28.85468,6.60623 -42.62497,10.38489 -0.93002,1.87842 -0.38136,4.72213 -0.38136,6.60055 1.86012,1.88012 5.21013,2.3701 6.51255,3.78432 -3.72185,5.19118 -7.05449,11.80648 -4.63506,18.39357 1.30242,3.31274 3.33936,6.62737 6.13119,8.50739 7.0713,-0.95001 14.14053,-1.8858 20.65243,-3.78432 1.48941,-1.41422 3.34428,-3.76328 3.34428,-5.66181 l -6.13119,-2.34686 c -2.23412,2.36264 -4.28683,5.63248 -8.00868,5.63248 -2.23234,0 -4.64379,-1.86163 -5.57381,-4.22436 -1.48942,-2.34425 -1.48942,-6.61929 0,-9.44615 1.30242,-1.4159 2.23624,-2.81981 3.72565,-3.28561 2.41943,-0.48429 5.19916,-0.49041 6.68857,1.40812 3.16414,-1.89853 5.03154,-2.84294 8.00869,-4.72306 -0.93002,-2.82854 -3.35269,-3.29402 -4.84042,-5.19245 3.90716,0.46411 6.69439,1.91556 9.85684,2.84558 l 1.11477,1.87749 0,21.70852 c 10.23374,-1.87853 16.37474,-3.30875 24.93546,-4.72307 l 0,-5.19244 c -5.21127,0.95001 -8.55799,1.43135 -14.13988,2.84557 l 0,-6.16052 12.64375,-2.34687 0,-7.06993 c -4.09416,0.4659 -8.36428,1.88106 -12.64375,2.34686 -0.5594,-1.89843 0,-3.76329 0,-5.66181 4.27947,-1.39423 9.86769,-1.8714 14.52124,-3.28562 l 0,-8.97676 c 2.41775,-0.94842 4.82676,-0.01 6.68857,0.93874 l 0.55738,1.8775 0,29.24783 c 4.09416,-0.93012 6.51636,-1.39329 10.23821,-1.8775 l 0,-16.98545 c 5.20948,4.72697 10.04539,9.44215 14.69726,14.16921 4.27946,-0.4842 7.45477,-1.42619 11.73433,-2.3762 l 0,-34.90965 c 2.04703,0.4659 3.91946,0.95316 5.22178,1.43746 l 0,8.00868 c 4.83886,-0.4842 6.12401,-0.94738 10.03286,-1.87749 l 0,24.05538 c 4.65186,-0.4842 5.95841,-0.4781 10.79558,-1.40812 l 0,-25.02346 8.9181,-2.34687 0.55738,-9.91551 c 1.86182,0.94841 2.24665,1.42041 4.6644,2.81624 l 0,22.6766 c 0,3.29444 2.78207,6.60582 5.57381,7.06994 4.27955,0.9501 7.63079,-0.005 11.91035,-0.46938 3.16414,-0.4843 11.34836,-0.94001 13.58249,-6.13119 3.90716,-5.19286 3.37385,-17.93504 2.81624,-34.44027 l 8.53673,3.75499 0,31.15466 c 4.27946,-0.48421 8.94921,-0.94359 13.23046,-2.37621 l 0,-9.4168 c 4.65186,2.34433 8.54734,4.24149 13.75851,7.06994 5.20957,-0.95002 10.80812,-2.36654 15.45998,-3.31495 l -13.58249,-8.97677 c 4.27946,-2.82854 7.06994,-7.06764 7.06994,-11.79301 -0.55771,-4.70866 -5.22366,-8.95226 -9.50481,-10.38488 0,-0.46582 -0.002,-0.90942 0.55738,-0.90942 4.27955,1.41422 9.30101,1.85646 14.13987,3.75498 4.27956,3.29435 8.01258,7.09181 11.73433,11.35297 l 0,15.07862 c 5.76898,-0.95001 8.91965,-1.39845 13.75851,-2.34686 l 0,-14.63859 c 5.20958,-9.43393 10.78719,-19.3686 16.92678,-28.33841 8.93302,2.36433 16.96156,6.61761 25.52218,9.44614 4.65186,16.52364 7.61051,33.52678 12.26238,50.51631 0,1.41422 -1.47543,0.93875 -2.40554,0.93875 l -32.56278,-13.20112 c -5.58188,-1.89853 -9.88651,0.45801 -16.95611,1.40812 l -257.71533,47.64139 c 0,3.29435 -0.38136,4.25234 -0.38136,7.09928 2.23243,1.88012 7.06993,1.40413 7.06993,6.13119 0,15.09101 0.0107,24.53297 0.38137,42.91833 l 18.98028,-1.8775 c 0.93011,-3.29434 0.009,-7.0773 0.38137,-10.85426 3.90716,-0.4658 8.00319,-0.94391 11.91035,-1.40812 6.14128,-0.9501 11.72424,-1.40202 17.86552,-2.81624 l 0,-13.69983 c -4.65186,0 -8.9509,1.40812 -13.23046,1.40812 -5.58357,1.41431 -10.77653,1.42619 -16.54541,2.3762 l 0,-10.38489 c 10.42075,-2.34424 21.20296,-3.29918 32.18141,-5.66181 l 0,-16.04671 0.38137,-0.46937 c 5.76888,1.87842 10.96184,3.30885 16.54541,4.72307 1.48773,0.46589 0.55738,1.86266 0.55738,2.34687 -8.18841,7.07129 -13.7547,17.93597 -10.03285,28.33842 2.41943,7.5355 10.03149,12.71249 17.10279,14.60924 23.44632,-3.31106 46.15855,-5.67275 69.23257,-9.91551 7.0713,-4.24276 13.23014,-11.80005 13.78785,-20.76977 0,-11.31415 -9.8912,-20.26877 -19.00963,-24.99414 l -17.83619,-6.13119 c 4.65187,-0.96841 8.5403,-1.42609 12.81977,-2.3762 10.23553,-2.34433 14.13851,3.29129 21.20981,7.06994 10.23543,5.65528 20.66651,10.86027 30.15724,17.48415 l 0.55738,0.46938 c -9.11843,8.96982 -19.90571,17.92377 -28.83713,27.341 l 0.93875,0.49871 c 9.86313,-0.94842 20.63515,-2.37358 30.68528,-4.2537 l 15.07862,-13.69983 c 5.20958,1.89852 12.27299,6.61769 17.48416,9.44614 l 32.0054,-4.72307 -32.56278,-20.74044 42.977,-39.19268 40.57146,13.69984 c 2.79014,9.91814 4.27778,20.78545 7.62732,30.68528 0.93002,3.29275 1.30622,7.55119 3.72565,9.91552 1.86013,0.93001 5.22211,0.001 4.6644,-2.84558 L 409.00023,4.987092 l 85.98334,0 0,311.458588 c -32.19235,-1.89852 -46.90026,-2.81972 -51.92443,-3.28562 l 0,-48.63881 c -1.86013,-8.01972 -18.43163,-9.89763 -19.36165,3.31495 -10.42084,-3.77696 -20.82192,-7.06248 -31.24267,-11.32364 -6.14128,-2.36264 -12.29059,-6.12415 -18.80427,-5.19244 l -53.39122,7.06994 c -58.98991,7.53541 -116.49716,14.1692 -175.48698,22.20722 -13.77028,1.88013 -27.36057,1.85553 -40.57146,5.63248 -9.86313,3.77696 -19.91936,13.69102 -19.36165,25.02347 0,8.02131 3.71532,15.57691 10.41422,20.76978 0.3724,0.93001 -0.53701,1.40812 -0.90941,1.40812 l -20.857779,2.81624 0,-53.33255 c -2.419439,-3.75856 -6.692701,-2.3372 -9.856841,-3.28562 -2.417836,0.94842 -6.697301,0.47158 -7.627318,3.78432 l 0,55.67941 -50.428303,6.1312 0,-340.237038 z m 347.805681,43.417033 30.68528,13.20113 3.72565,17.95354 -8.91809,-3.31495 c -11.90847,-4.24286 -16.02722,-8.02803 -22.35391,-1.90683 -1.30232,1.41422 -1.83651,2.3701 -3.13893,3.78432 l 0,-29.71721 z m -98.18705,8.36072 c 9.64412,-0.22899 18.22228,4.5034 22.06055,13.34781 5.20958,11.79826 0.55044,25.01243 -8.00868,33.032155 -8.93302,8.96982 -19.72429,14.15574 -32.56278,11.793 -7.4437,-1.88002 -15.06674,-8.02698 -16.92678,-16.046705 -3.72185,-14.14259 4.83614,-25.93288 14.13988,-33.9709 6.14128,-3.75865 12.29035,-7.5555 19.36165,-8.03802 0.65129,-0.0594 1.29322,-0.10207 1.93616,-0.11734 z m 70.25933,17.10279 c -3.16245,0.46421 -6.12626,0.94748 -8.91809,1.8775 l 0,42.507625 c 3.34945,-0.46421 6.12602,-0.97155 9.47547,-1.43745 l 0,-23.116645 0.38137,-0.46937 8.91809,-2.34687 0,-9.91551 c -3.72175,0.93001 -5.57568,1.41328 -9.85684,1.87749 l 0,-8.97677 z m 14.69726,58.055625 c 5.20957,0.94842 10.42675,1.41296 15.07862,2.84558 0.3723,0.93002 0.002,1.86623 -0.55738,2.81624 l -3.72566,7.06994 c -3.35113,-3.29435 -7.44604,-8.01606 -10.79558,-11.79301 l 0,-0.93875 z m -79.26543,16.51608 9.29946,4.72307 0,20.3004 c 0,2.36433 -0.93392,3.76015 -3.72566,4.22436 -2.41943,0.4842 -3.72532,0.01 -4.28303,-0.93875 -1.30232,-1.88012 -1.29077,-2.80877 -1.29077,-7.06993 l 0,-21.23915 z m 47.70007,0 c 1.9408,0.0743 3.76238,0.70242 4.57639,1.87749 0.55771,1.41432 0.93001,3.30359 0,4.2537 -2.23244,2.82854 -5.1893,1.89547 -7.97935,2.84558 l 0,-8.5074 c 1.04627,-0.34939 2.23847,-0.51391 3.40296,-0.46937 z m -129.40038,15.57733 c 6.6989,1.41432 13.77944,3.77202 19.91903,6.60056 l 0,14.16921 c -6.69899,-6.60718 -13.22013,-13.2107 -19.91903,-20.3004 l 0,-0.46937 z m 109.98005,31.15466 35.90707,7.53931 -10.03286,8.97676 c -3.16245,-0.9501 -5.59831,-3.31978 -8.39005,-4.7524 l -16.92678,-10.35555 -1.11476,-0.93876 0.55738,-0.46937 z m -68.93921,27.66368 c 4.47237,-0.13859 9.01525,0.40335 13.31847,1.58414 3.72175,1.41431 7.99704,3.32588 9.29946,7.56864 2.04703,5.19288 -1.88106,9.8884 -6.16053,13.20113 -6.14128,3.75855 -12.08299,7.08444 -19.71368,7.56865 -8.93133,0.46421 -20.28167,0.46073 -25.49284,-8.5074 -2.41944,-3.77864 0.55278,-7.55635 2.7869,-10.38488 6.52488,-7.13903 16.12299,-10.72537 25.96222,-11.03028 z m 222.83501,17.63084 -23.61535,3.78432 c 0.3724,4.24276 3.70012,8.00258 7.42197,9.41681 4.27946,1.41431 9.12757,0.48167 12.29171,-2.34687 2.97705,-2.36433 4.27398,-6.61141 3.90167,-10.85426 z M 56.002112,252.75758 c -1.302417,2.81013 -1.311382,5.18014 -0.381366,8.00868 1.861817,3.75855 5.234311,7.52617 9.886177,8.00868 4.279557,0.46581 8.540859,-1.41201 11.704997,-4.72307 1.48942,-1.89843 2.42615,-4.72044 1.49613,-6.60056 -7.630704,-1.89683 -15.076931,-2.8153 -22.705938,-4.69373 z m 317.091058,8.94743 c 16.56034,3.77864 34.05135,10.85205 50.98568,15.57732 l 0,33.03215 -251.9655,-25.49284 c 0,-1.41431 1.49613,-0.93874 1.49613,-0.93874 7.0713,-1.41432 14.13851,-1.4262 21.20981,-2.3762 34.42647,-3.77696 68.86468,-7.53185 103.84886,-11.79301 17.30674,-1.88012 35.72317,-3.29909 53.21521,-5.66182 7.07139,-0.95001 14.13851,-0.93255 21.20981,-2.34686 z m -245.24759,26.90096 c 3.72185,0.46589 7.42586,0.47294 11.14761,0.93874 l 355.99038,35.87772 0,38.22461 -489.967142,0 0,-11.82234 109.041302,-16.01737 C 105.1264,332.49459 93.39892,327.27586 91.3518,315.47759 l 0,-4.72307 c 0.93001,-8.0214 7.63492,-15.55021 15.07862,-18.86294 6.69889,-2.82854 13.78615,-2.35391 21.41516,-3.28561 z"
     id="rect2824" />
</svg>
