<?xml version="1.0" encoding="UTF-8" standalone="no"?>
<!-- Created with Inkscape (http://www.inkscape.org/) -->

<svg
   xmlns:dc="http://purl.org/dc/elements/1.1/"
   xmlns:cc="http://creativecommons.org/ns#"
   xmlns:rdf="http://www.w3.org/1999/02/22-rdf-syntax-ns#"
   xmlns:svg="http://www.w3.org/2000/svg"
   xmlns="http://www.w3.org/2000/svg"
   xmlns:sodipodi="http://sodipodi.sourceforge.net/DTD/sodipodi-0.dtd"
   xmlns:inkscape="http://www.inkscape.org/namespaces/inkscape"
   width="500"
   height="242.597"
   id="svg2"
   version="1.1"
   inkscape:version="0.47 r22583"
   sodipodi:docname="Neues Dokument 1">
  <defs
     id="defs4">
    <inkscape:perspective
       sodipodi:type="inkscape:persp3d"
       inkscape:vp_x="0 : 526.18109 : 1"
       inkscape:vp_y="0 : 1000 : 0"
       inkscape:vp_z="744.09448 : 526.18109 : 1"
       inkscape:persp3d-origin="372.04724 : 350.78739 : 1"
       id="perspective10" />
    <inkscape:perspective
       id="perspective2824"
       inkscape:persp3d-origin="0.5 : 0.33333333 : 1"
       inkscape:vp_z="1 : 0.5 : 1"
       inkscape:vp_y="0 : 1000 : 0"
       inkscape:vp_x="0 : 0.5 : 1"
       sodipodi:type="inkscape:persp3d" />
    <inkscape:perspective
       id="perspective2840"
       inkscape:persp3d-origin="0.5 : 0.33333333 : 1"
       inkscape:vp_z="1 : 0.5 : 1"
       inkscape:vp_y="0 : 1000 : 0"
       inkscape:vp_x="0 : 0.5 : 1"
       sodipodi:type="inkscape:persp3d" />
  </defs>
  <sodipodi:namedview
     id="base"
     pagecolor="#ffffff"
     bordercolor="#666666"
     borderopacity="1.0"
     inkscape:pageopacity="0.0"
     inkscape:pageshadow="2"
     inkscape:zoom="1.4"
     inkscape:cx="459.72103"
     inkscape:cy="181.81763"
     inkscape:document-units="px"
     inkscape:current-layer="g2846"
     showgrid="false"
     inkscape:window-width="1680"
     inkscape:window-height="988"
     inkscape:window-x="1672"
     inkscape:window-y="-8"
     inkscape:window-maximized="1" />
  <metadata
     id="metadata7">
    <rdf:RDF>
      <cc:Work
         rdf:about="">
        <dc:format>image/svg+xml</dc:format>
        <dc:type
           rdf:resource="http://purl.org/dc/dcmitype/StillImage" />
        <dc:title></dc:title>
      </cc:Work>
    </rdf:RDF>
  </metadata>
  <g
     inkscape:label="Ebene 1"
     inkscape:groupmode="layer"
     id="layer1"
     transform="translate(38.71875,-343.58772)">
    <g
       id="g2846"
       transform="translate(140.71429,52.142857)">
      <path
         style="fill:#000000;fill-opacity:1"
         d="m 72.977778,291.44668 c -6.391389,-0.0263 -12.653064,0.23308 -17.04642,0.81072 -40.742128,5.35682 -71.351269,28.71991 -88.880356,67.82307 -2.192299,4.89051 -3.247878,7.55968 -3.093531,7.70184 0.01714,0.0157 0.05994,0.004 0.106673,-0.0427 0.280505,-0.28074 1.091477,-1.69712 2.45349,-4.33094 11.556983,-22.34861 30.6256911,-40.9169 52.974058,-51.54469 8.864612,-4.21557 16.385048,-7.05066 16.385048,-6.18706 0,0.35867 -0.288772,0.66138 -0.618706,0.66138 -0.329933,0 -0.978214,0.92864 -1.45076,2.06946 -0.472545,1.14082 -1.432258,2.3769 -2.133469,2.75217 -1.516177,0.81143 -5.355009,8.15637 -5.355009,10.24067 0,0.80403 -1.440315,3.34923 -3.178871,5.65371 -5.459225,7.23626 -6.941376,11.96053 -5.291005,16.68375 0.618638,1.77048 1.173852,5.06486 1.237412,7.3178 0.06356,2.25295 0.602499,5.01793 1.194743,6.14441 0.592245,1.12646 1.443967,3.2002 1.898789,4.60829 0.454821,1.4081 1.104393,2.56017 1.450759,2.56017 0.06063,0 0.119324,-0.0269 0.170678,-0.064 0.05134,-0.037 0.10709,-0.0998 0.149343,-0.17068 0.591588,-0.99242 0.289756,-5.11625 -0.682711,-7.87251 -1.350435,-3.82756 -1.602635,-7.73193 -0.533367,-8.1072 0.538501,-0.18899 0.853388,0.3477 0.853388,1.45076 0,2.02452 2.075487,7.75213 4.416283,12.37414 0.334397,0.66029 0.663,1.29683 1.00273,1.89879 1.199885,2.12608 1.994327,4.19074 1.749446,4.58696 -0.79189,1.2813 0.360703,4.77558 1.578767,4.77899 0.627268,0.002 2.073733,0.76208 3.200206,1.68544 2.006943,1.64508 2.298992,1.68274 14.528929,1.70677 11.307218,0.0222 12.497039,-0.091 12.822155,-1.1734 0.09869,-0.32856 0.345215,-0.98779 0.640043,-1.79212 0.294828,-0.80432 0.654097,-1.75372 1.002731,-2.64551 l 1.258741,-3.24287 -1.984124,-0.10671 c -1.094167,-0.0563 -2.35876,-0.13313 -2.816184,-0.17068 -0.457416,-0.0376 -1.523054,1.13429 -2.346812,2.60284 -1.803155,3.21456 -2.310637,3.52937 -6.848439,4.13893 l -3.54156,0.46937 -2.13347,-3.64825 c -0.638846,-1.09309 -1.112286,-2.14453 -1.429425,-3.2002 -0.07928,-0.26392 -0.154176,-0.52573 -0.213347,-0.78938 -0.236669,-1.05462 -0.298686,-2.11665 -0.213347,-3.20021 0.0213,-0.27089 0.04389,-0.53595 0.08534,-0.81072 0.24882,-1.64864 0.860645,-3.37674 1.834784,-5.26968 2.434394,-4.73048 4.434907,-5.94923 10.325991,-6.22974 6.309965,-0.30045 13.36308,-0.75161 15.488994,-1.00274 1.439895,-0.17008 1.865187,0.32475 3.221536,3.79759 1.622987,4.15552 2.717818,5.90972 3.733575,5.90972 0.272152,0 0.447059,-0.29817 0.533367,-0.78939 0.02156,-0.1228 0.05347,-0.25834 0.06399,-0.40536 0.116815,-1.61714 -0.432845,-4.61517 -1.450758,-7.27514 -1.700082,-4.4426 -1.587014,-4.68961 3.818915,-8.27786 0.352827,-0.2342 0.67769,-0.45959 0.981393,-0.68272 0.303704,-0.22311 0.589227,-0.4377 0.853389,-0.66138 1.58496,-1.34207 2.536082,-2.80421 3.904245,-5.63236 1.466605,-3.03161 2.952551,-5.06092 4.245613,-5.80305 1.376558,-0.79004 2.005461,-1.67648 2.005461,-2.88018 0,-1.564 0.264019,-1.72812 2.645496,-1.72812 0.182005,0 0.350958,-0.009 0.533375,-0.0213 1.276912,-0.0886 2.523806,-0.48361 2.901515,-0.93873 0.626352,-0.75471 0.278972,-1.23429 -1.642774,-2.36814 -2.494739,-1.47195 -3.136567,-3.26232 -1.408091,-3.92561 0.546889,-0.20985 2.43583,-0.0782 4.202937,0.29869 0.389,0.0829 0.7844,0.14595 1.17341,0.19202 2.72309,0.32246 5.28371,-0.21732 5.20567,-1.23742 -0.0222,-0.29091 -2.71877,-2.25488 -5.99505,-4.35228 -4.982005,-3.18936 -6.212471,-3.69605 -7.467145,-3.13621 -0.592132,0.26422 -1.111824,0.32615 -1.728114,0.17068 -0.154075,-0.0388 -0.299139,-0.0806 -0.469364,-0.14934 -0.510682,-0.20638 -1.115941,-0.56444 -1.877456,-1.06674 -3.267587,-2.15531 -8.28289,-2.93037 -8.875233,-1.38676 -0.09591,0.24994 -0.0905,0.53236 0.0213,0.85339 0.0373,0.10702 0.09042,0.22921 0.149342,0.34136 0.235701,0.44859 0.641946,0.93259 1.194738,1.40809 1.657426,1.42565 1.702323,1.55503 0.469364,1.87746 -0.994756,0.26014 -1.322743,0.93864 -1.322743,2.75218 0,3.51094 -1.269082,3.81775 -3.776249,0.91739 -1.840979,-2.12971 -2.883984,-2.64927 -7.125783,-3.54156 -0.682692,-0.1436 -1.357224,-0.2812 -1.984132,-0.4267 -1.880706,-0.4365 -3.355369,-0.85625 -3.626898,-1.02407 -1.102368,-0.6813 1.220008,-2.87308 4.800308,-5.03498 0.358031,-0.21619 0.72865,-0.42606 1.109407,-0.64005 1.903761,-1.06993 4.065208,-2.09731 6.208391,-2.88018 6.331126,-2.31266 17.498565,-2.14661 26.924387,0.40536 22.15346,5.99784 39.36015,15.84787 54.95818,31.44737 8.90735,8.90819 14.24778,15.91688 19.90528,26.15637 4.53039,8.19954 4.69243,7.45913 0.34135,-1.57878 -17.20175,-35.7313 -47.45184,-59.39976 -84.762679,-66.32967 -4.961296,-0.92149 -13.394547,-1.43835 -21.612054,-1.4721 z m 4.757643,72.90074 c -0.896787,0.0225 -1.637705,0.24709 -1.920122,0.70405 -0.245477,0.39719 0.429856,0.68271 1.621437,0.68271 1.126467,0 2.244884,0.31882 2.496154,0.72538 0.251278,0.40657 1.807879,1.32024 3.456227,2.0268 1.648331,0.70656 3.00751,1.53983 3.008192,1.83478 0.0017,0.6846 5.841039,0.70343 6.528413,0.0213 0.283814,-0.28163 -0.265408,-0.51204 -1.216076,-0.51204 -0.950676,0 -2.5015,-0.61444 -3.456219,-1.36542 -0.238673,-0.18775 -0.518732,-0.37016 -0.810722,-0.53337 -0.291982,-0.16321 -0.609284,-0.30295 -0.917391,-0.4267 -0.616214,-0.24748 -1.227856,-0.40535 -1.68544,-0.40535 -0.343194,0 -0.731479,-0.0871 -1.130736,-0.23468 -0.133091,-0.0493 -0.273971,-0.10882 -0.405361,-0.17068 -0.525561,-0.24748 -1.004271,-0.58457 -1.344089,-0.96006 -0.818899,-0.90488 -2.729632,-1.42415 -4.224267,-1.38676 z m 104.988049,3.52023 c -0.12612,0.0611 -0.008,0.61307 0.36269,1.57877 0.0585,0.15254 0.10357,0.31032 0.17068,0.4267 0.20134,0.34911 0.42287,0.51585 0.5547,0.38402 0.17578,-0.17578 -0.007,-0.8935 -0.40536,-1.57877 -0.3521,-0.6055 -0.58462,-0.85829 -0.68271,-0.81072 z m -86.725546,3.11486 c -0.891666,0.0632 -1.084937,0.46596 -1.152072,1.57879 -0.05658,0.93872 0.236408,1.91979 0.661371,2.19747 0.424964,0.27767 1.250212,0.32748 1.813454,0.10667 0.563233,-0.2208 2.182691,-0.56588 3.605563,-0.76805 l 2.5815,-0.36268 -2.0908,-1.28009 c -1.14992,-0.69931 -3.083757,-1.33531 -4.28828,-1.42943 -0.475974,-0.0372 -0.833516,-0.0637 -1.130736,-0.0427 z m 12.246116,3.62692 c -0.18775,0 -0.36696,0.0683 -0.4907,0.19201 -0.0619,0.0619 -0.11467,0.13174 -0.14934,0.21334 -0.0347,0.0816 -0.0427,0.18348 -0.0427,0.27736 0,0.28162 0.16055,0.5147 0.40536,0.61871 0.0816,0.0347 0.18348,0.064 0.27735,0.064 0.37549,0 0.68271,-0.30722 0.68271,-0.68271 0,-0.37549 -0.30722,-0.68272 -0.68271,-0.68272 z m 71.57791,12.05411 c -2.57083,0.0702 -4.90358,0.33835 -6.46441,0.78938 -3.51672,1.01624 -6.21075,2.74155 -7.97918,4.971 -0.25263,0.31849 -0.4901,0.64291 -0.70405,0.98139 -1.71153,2.70792 -2.17615,6.04127 -1.19473,9.68597 1.24576,4.62644 6.17376,8.44035 14.2089,11.07272 0.57395,0.18802 1.16536,0.379 1.77078,0.5547 0.60542,0.1757 1.21964,0.34893 1.85612,0.51203 5.57008,1.42733 7.48848,2.626 7.48848,4.75764 0,1.37237 -0.70633,2.23789 -2.32548,2.68818 -0.16192,0.0451 -0.353,0.0911 -0.53337,0.12801 -0.90185,0.18459 -2.01952,0.25913 -3.41355,0.25602 -4.55401,-0.0102 -9.97706,-1.42645 -15.0623,-3.94693 l -3.92558,-1.94146 0,7.85118 0,7.85118 1.66411,-1.57878 1.68544,-1.57876 4.28827,1.19473 c 2.35991,0.66561 5.84571,1.44868 7.72316,1.72813 3.11798,0.46406 4.56148,0.64011 6.40041,0.51203 0.36779,-0.0256 0.73659,-0.0782 1.15208,-0.12801 0.83096,-0.0995 1.81003,-0.2297 3.02952,-0.42669 4.88299,-0.78876 9.44592,-3.11703 11.09405,-5.63238 1.68201,-2.56708 2.69663,-7.20084 2.19747,-10.15532 -0.92258,-5.46071 -5.86258,-9.11508 -16.89708,-12.48081 -6.87889,-2.09818 -10.14153,-4.37751 -8.98191,-6.27241 1.12888,-1.84469 4.25799,-2.3972 9.00324,-1.6001 3.85044,0.64679 10.15503,2.41283 13.31286,3.73357 0.1365,0.0571 0.25537,0.11166 0.36268,0.12801 0.75122,0.1144 0.83206,-1.00998 0.83206,-6.52842 0,-3.7951 -0.21732,-6.89111 -0.46937,-6.89111 -0.25204,0 -1.00067,0.48766 -1.6641,1.08806 -1.10655,1.00141 -1.57958,0.99112 -5.84571,-0.12801 -2.68271,-0.70375 -6.41184,-1.11797 -9.98464,-1.19474 -0.89319,-0.0192 -1.76722,-0.0234 -2.62417,0 z m -359.25499,0.9174 1.45076,1.53609 c 1.35356,1.45164 1.43093,2.39948 1.64277,17.23846 0.24861,17.41446 0.4058,18.05181 4.97099,22.0601 2.1387,1.8778 3.7978,2.57754 8.9179,3.75491 0.75098,0.17269 4.29036,0.34047 7.87251,0.38403 0.71896,0.009 1.4116,0.0135 2.09079,0 0.67919,-0.0135 1.34394,-0.0494 1.98413,-0.0853 8.96266,-0.5041 14.14892,-3.23298 16.61973,-8.64056 1.29238,-2.82851 1.46063,-4.6531 1.68544,-18.15585 0.20706,-12.43533 0.43548,-15.22175 1.32275,-16.2144 0.58942,-0.6594 0.90109,-1.36038 0.70405,-1.55742 -0.19704,-0.19701 -4.26645,-0.27615 -9.04591,-0.17068 l -8.68323,0.19201 1.42943,1.81345 c 1.32562,1.68344 1.4115,2.6694 1.40809,13.65422 -0.004,12.89671 -0.4749,16.08788 -3.0722,17.98517 -0.17315,0.12648 -0.34084,0.24529 -0.53337,0.36269 -1.14557,0.69851 -2.50882,1.11883 -3.92558,1.28008 -0.35419,0.0403 -0.70754,0.0547 -1.06673,0.064 -3.95116,0.10337 -8.06321,-1.61504 -9.15259,-4.48031 -0.36613,-0.96299 -0.66137,-7.5337 -0.66137,-14.59294 0,-11.95107 0.0906,-12.96066 1.40808,-14.63562 l 1.40809,-1.79211 -9.38726,0 -9.38727,0 z m 98.523639,0 1.386756,1.89878 c 1.298085,1.75577 1.390619,2.71019 1.216078,12.60882 l -0.170678,10.6887 -10.923366,-12.56616 -10.923369,-12.58748 -7.04045,-0.0213 c -2.53,-0.009 -4.1459,-0.009 -5.14166,0.064 -0.33192,0.0243 -0.58442,0.0644 -0.78938,0.10667 -0.81984,0.16929 -0.70397,0.49304 -0.3627,1.13074 0.0977,0.18251 0.20063,0.37472 0.32003,0.5547 0.2388,0.35996 0.51223,0.68225 0.74671,0.9174 0.11724,0.11756 0.22665,0.21964 0.32002,0.27735 0.4234,0.26167 0.68271,7.43651 0.68271,19.05191 0,17.7614 -0.0635,18.68444 -1.36542,19.86262 -0.37549,0.33982 -0.73391,0.71686 -0.98139,1.0454 -0.12375,0.16427 -0.20802,0.31632 -0.27736,0.44802 -0.0693,0.13171 -0.10667,0.24071 -0.10667,0.32002 0,0.0198 -0.004,0.0233 0.0213,0.0427 0.0259,0.0193 0.0776,0.0452 0.128,0.064 0.70556,0.26225 3.75615,0.46936 7.38181,0.46936 1.81258,0 3.1913,-0.018 4.22427,-0.0427 0.51648,-0.0124 0.94436,-0.0173 1.30141,-0.0427 0.53557,-0.0381 0.90874,-0.0903 1.15208,-0.17068 0.0811,-0.0268 0.137454,-0.0527 0.192009,-0.0853 0.05455,-0.0326 0.09706,-0.0889 0.128008,-0.128 0.03095,-0.0391 0.0537,-0.0819 0.064,-0.12802 0.04122,-0.18432 -0.06377,-0.40601 -0.234682,-0.72537 -0.09768,-0.18252 -0.221955,-0.37473 -0.341355,-0.5547 -0.23879,-0.35995 -0.51223,-0.7036 -0.74671,-0.93873 -0.11724,-0.11757 -0.22666,-0.19832 -0.32002,-0.25602 -0.84239,-0.52063 -0.92696,-22.40488 -0.0853,-22.08143 0.32568,0.12516 5.73146,5.84145 12.011432,12.69416 l 11.414064,12.45947 5.077658,0 5.056324,0 0,-20.73735 c 0,-17.60186 0.154914,-20.8694 1.024066,-21.59073 2.035815,-1.68958 0.895927,-2.04813 -6.507084,-2.04813 l -7.531148,0 z m 32.55675,0 1.493429,1.57876 c 1.449948,1.54339 1.493429,2.00247 1.493429,20.37466 0,17.99497 -0.07571,18.88836 -1.429425,20.60934 l -1.40809,1.81345 9.280595,0 c 2.247475,0 3.968875,-0.0186 5.248335,-0.0427 3.838382,-0.0722 3.865131,-0.31671 3.349548,-1.28008 -0.390722,-0.73007 -1.03462,-1.51863 -1.40809,-1.74944 -0.423151,-0.26153 -0.661376,-7.37874 -0.661376,-18.88123 0,-17.56644 0.06438,-18.55161 1.40809,-20.43867 l 1.40809,-1.98412 -9.387267,0 -9.387268,0 z m 39.1065029,0 c -5.5258299,0 -8.8453449,0.24796 -8.7045569,0.66137 0.125162,0.36754 4.689367,10.367 10.1339825,22.20944 l 9.8992997,21.52674 4.7149683,-0.19202 4.7149695,-0.17068 10.091311,-21.5054 c 5.549849,-11.82796 10.114321,-21.73581 10.133983,-22.01743 0.01966,-0.28161 -3.336747,-0.51202 -7.467145,-0.51202 -1.032599,0 -2.025199,-0.002 -2.922853,0.0213 -2.692972,0.0698 -4.586961,0.23766 -4.586961,0.4267 0,0.12602 0.116471,0.37473 0.32002,0.68271 0.203551,0.30798 0.480546,0.68281 0.789384,1.02406 1.053648,1.16428 0.788013,1.97726 -4.266939,13.16353 -2.592907,5.73793 -4.9064074,10.38767 -5.5896915,11.28607 -0.048812,0.0642 -0.075025,0.12452 -0.1066733,0.14934 -0.031677,0.0248 -0.071825,0.0165 -0.085339,0 -0.2161935,-0.26401 -2.6336436,-5.62502 -5.3763444,-11.92611 -4.6546167,-10.69358 -4.8983648,-11.54854 -3.86158,-12.69416 0.61090991,-0.67506 1.10940389,-1.43339 1.10940389,-1.68544 0,-0.25206 -4.02657059,-0.44803 -8.93923899,-0.44803 z m 52.4620251,0 1.109404,1.68543 c 1.595986,2.43578 1.674067,39.32411 0.08534,40.64264 -0.563237,0.46745 -1.024066,1.12126 -1.024066,1.45077 0,0.33037 9.187405,0.59737 20.481309,0.59737 l 20.48131,0 0,-6.2724 0,-6.25108 -1.578762,1.4721 c -1.492001,1.40166 -2.215304,1.49343 -12.971504,1.49343 l -11.392724,0 0,-4.09627 0,-4.09627 7.296462,0 c 6.550474,0 7.456431,0.13921 8.875242,1.4721 l 1.578762,1.49343 0,-7.31781 0,-7.29647 -1.920121,1.40809 c -1.682038,1.24359 -2.721632,1.38961 -8.704554,1.21608 l -6.78444,-0.19201 -0.213345,-3.9256 -0.213345,-3.92558 11.328721,0 c 9.273319,0 11.636003,0.18506 13.014169,1.08807 l 1.685439,1.1094 0,-5.88837 0,-5.86705 -20.566649,0 -20.566647,0 z m 196.535243,0 c -6.79317,-0.002 -7.36676,0.0998 -6.91244,1.19473 0.83898,2.02207 0.71275,2.37427 -4.77897,13.88892 -2.93569,6.15532 -7.27503,15.27138 -9.64329,20.24665 l -4.30961,9.04591 8.27787,0 8.2992,0 -1.49343,-1.60011 c -1.42355,-1.51529 -1.46385,-1.71615 -0.46937,-4.09626 l 1.04541,-2.49616 10.49667,0 10.49667,0 0.87472,2.11213 c 0.75113,1.81337 0.70752,2.39289 -0.29868,4.09627 l -1.17341,1.98413 9.21659,0 9.23792,0 -4.33094,-9.04591 c -2.38463,-4.97527 -7.21751,-14.96057 -10.73136,-22.18812 l -6.37908,-13.14218 -7.42447,0 z m 50.11521,0 c -8.64877,0 -8.92201,0.0394 -8.23519,1.32275 0.39072,0.73006 1.01328,1.51862 1.38675,1.74944 0.4234,0.26168 0.68271,7.43652 0.68271,19.05191 0,17.76141 -0.0636,18.68445 -1.36542,19.86262 -0.75098,0.67963 -1.36542,1.49615 -1.36542,1.81345 0,0.23796 4.99712,0.44548 12.09678,0.53336 2.36654,0.0293 4.97951,0.0427 7.70182,0.0427 l 19.7986,0 0,-5.80304 c 0,-5.76471 -0.41888,-6.74211 -2.04813,-4.77898 -0.51763,0.62369 -1.88725,0.88829 -6.25107,0.9814 -1.4546,0.0311 -3.23973,0.0427 -5.44034,0.0427 l -10.83803,0 0,-15.425 c 0,-14.50126 0.0808,-15.5452 1.40809,-17.40914 l 1.40809,-1.98412 -8.93924,0 z m -178.50743,0.0853 c -6.20211,0.0109 -9.94196,0.17697 -9.94196,0.46936 0,0.35331 0.46082,1.02598 1.02406,1.49342 0.86607,0.71878 1.02407,3.82613 1.02407,20.13998 0,6.1177 -0.0333,10.38169 -0.10668,13.35554 -0.0245,0.99128 -0.0484,1.83369 -0.0853,2.56017 -0.14776,2.90591 -0.39903,3.86488 -0.83206,4.22426 -0.56324,0.46745 -1.02406,1.12126 -1.02406,1.45077 0,0.24713 2.24107,0.46343 5.44034,0.55469 1.06643,0.0305 2.25082,0.0427 3.47756,0.0427 l 8.9179,0 -1.40809,-1.98414 c -1.1641,-1.63484 -1.40809,-3.01275 -1.40809,-7.85116 l 0,-5.86705 2.90152,0.0213 c 2.86825,0.027 2.94024,0.0877 6.91244,5.88838 l 4.01092,5.86705 -1.15207,1.96279 -1.15207,1.96279 9.62195,0 c 2.23925,0 3.96166,-0.0175 5.26967,-0.0427 3.92404,-0.0753 4.14861,-0.31781 3.6909,-1.15207 -0.36051,-0.65711 -2.96173,-4.53805 -5.7817,-8.61922 l -5.12033,-7.42448 3.17887,-2.13348 c 4.35527,-2.92435 6.27241,-6.48287 6.27241,-11.69142 0,-5.55863 -1.91448,-8.89007 -6.44309,-11.22207 -3.33029,-1.71493 -3.70169,-1.75276 -20.31063,-1.96279 -2.56682,-0.0325 -4.90908,-0.0463 -6.97645,-0.0427 z m 202.89299,0.0427 c -1.0134,1e-5 -2.00013,0.26936 -2.96552,0.78938 -0.9654,0.52004 -1.72011,1.2721 -2.26148,2.24014 -0.54137,0.96808 -0.81072,1.95748 -0.81072,3.00821 0,1.04006 0.27735,2.04813 0.81072,3.00819 0.53337,0.96006 1.28274,1.70944 2.24014,2.24014 0.95739,0.5307 1.94146,0.78939 2.98686,0.78939 1.04539,0 2.05079,-0.25869 3.00819,-0.78939 0.95739,-0.5307 1.70943,-1.28008 2.24015,-2.24014 0.53069,-0.96006 0.78937,-1.96813 0.78938,-3.00819 -10e-6,-1.05073 -0.27202,-2.04013 -0.81072,-3.00821 -0.53871,-0.96804 -1.27476,-1.7201 -2.24014,-2.24014 -0.9654,-0.52002 -1.97348,-0.78937 -2.98686,-0.78938 z m 0,1.00273 c 0.84271,10e-6 1.66943,0.22669 2.47483,0.66138 0.80536,0.43469 1.44808,1.04807 1.89878,1.85612 0.45069,0.80805 0.66136,1.64278 0.66138,2.5175 -2e-5,0.86938 -0.21869,1.72011 -0.66138,2.51749 -0.4427,0.79738 -1.05607,1.41076 -1.85612,1.85612 -0.80006,0.44536 -1.64811,0.66138 -2.51749,0.66138 -0.86939,0 -1.69611,-0.21602 -2.49616,-0.66138 -0.80005,-0.44536 -1.43209,-1.05874 -1.87746,-1.85612 -0.44536,-0.79738 -0.66137,-1.64811 -0.66137,-2.51749 0,-0.87472 0.22935,-1.70945 0.68271,-2.5175 0.45337,-0.80805 1.07473,-1.42143 1.87746,-1.85612 0.8027,-0.43469 1.62676,-0.66137 2.47482,-0.66138 z m 0.0853,1.64277 c -0.63472,10e-6 -1.21341,0.14135 -1.70677,0.40536 -0.49338,0.26402 -0.86406,0.65338 -1.13075,1.1734 -0.26669,0.52006 -0.40535,1.13077 -0.40535,1.8348 0,1.07741 0.30934,1.93079 0.89605,2.53883 0.5867,0.60804 1.34408,0.89606 2.28282,0.89606 0.74137,0 1.35741,-0.17868 1.87745,-0.57604 0.52003,-0.39736 0.86404,-0.93339 1.02406,-1.60011 l -0.98139,-0.29868 c -0.11735,0.4747 -0.3627,0.8534 -0.72538,1.13074 -0.3627,0.27736 -0.77872,0.42669 -1.25875,0.42669 -0.59738,0 -1.07474,-0.22134 -1.45076,-0.64004 -0.37602,-0.41868 -0.57604,-1.04006 -0.57603,-1.85612 -10e-6,-0.81603 0.20001,-1.44008 0.59737,-1.87746 0.39735,-0.43735 0.90138,-0.66137 1.51476,-0.66138 0.42136,10e-6 0.79737,0.10936 1.1094,0.32003 0.31202,0.21069 0.54403,0.52271 0.70405,0.9174 l 0.96006,-0.23469 c -0.17068,-0.58137 -0.4907,-1.04806 -0.96006,-1.38676 -0.46937,-0.33868 -1.06141,-0.51202 -1.77078,-0.51203 z m -197.90067,6.78444 6.48575,0 c 5.57547,0 6.67738,0.19164 7.85117,1.36542 1.95186,1.95187 1.70547,4.52428 -0.64004,6.86979 -1.89545,1.89545 -2.28952,2.00546 -7.85117,2.00546 l -5.84571,0 0,-5.12033 0,-5.12034 z m 123.48524,3.92559 c 0.47177,-0.49676 6.91244,12.94099 6.91244,14.42228 0,0.50728 -2.269,0.76804 -6.8271,0.76804 -3.75491,0 -6.82711,-0.15596 -6.82711,-0.34135 0,-0.57998 6.2369,-14.31738 6.74177,-14.84897 z m -117.34084,42.49877 c -18.02356,0 -32.770098,0.122 -32.770098,0.27735 0,0.15534 2.429616,2.30339 5.397677,4.77897 5.380561,4.48778 7.061241,6.88947 6.315071,9.51529 -0.0533,0.18756 -0.1357,0.38538 -0.21335,0.57604 -0.0776,0.19065 -0.15496,0.3806 -0.25602,0.57603 -0.55545,1.07413 -1.02133,3.73201 -1.02406,5.90972 -0.003,2.8026 -0.383987,4.56669 -1.344085,6.01639 -0.74603,1.12648 -1.36269,2.69149 -1.365418,3.47756 -0.0076,2.53356 -2.617288,9.0829 -4.842982,12.18213 -1.545351,2.15185 -2.03708,3.4836 -1.749442,4.62963 0.221588,0.88287 -0.06829,3.09939 -0.618707,4.92832 -1.299032,4.31635 -1.244149,6.46073 0.149343,8.00052 0.09498,0.10496 0.17851,0.20694 0.277347,0.29869 0.790708,0.73399 1.68757,1.04754 2.282817,0.93872 0.148812,-0.0273 0.278123,-0.091 0.384025,-0.17067 0.05296,-0.0398 0.08808,-0.075 0.128005,-0.12801 0.07982,-0.10594 0.130826,-0.24703 0.149342,-0.40535 0.01852,-0.15834 0.01246,-0.34404 -0.04269,-0.55471 -0.237949,-0.9099 0.363968,-1.65673 2.11213,-2.68818 1.589557,-0.93786 2.279272,-1.79557 2.026798,-2.4535 -0.247514,-0.64501 0.3147,-1.36281 1.557434,-2.00546 1.067073,-0.5518 2.655393,-2.2588 3.520233,-3.79757 0.96925,-1.72456 2.06817,-2.79486 2.85885,-2.79486 0.70548,0 2.29975,-0.60201 3.54155,-1.32274 1.24181,-0.72075 3.64397,-1.65801 5.33368,-2.09081 3.2186,-0.82441 4.91024,-2.27954 4.35227,-3.73357 -0.20045,-0.52238 1.14325,-1.58831 3.43489,-2.70952 2.9212,-1.42921 6.59459,-4.4577 9.62195,-7.74449 0.30274,-0.32868 0.60763,-0.64905 0.89606,-0.9814 1.44216,-1.66178 2.68791,-3.35659 3.56289,-4.90699 2.24022,-3.96945 6.05909,-6.54976 9.70729,-6.54976 1.76956,0 3.95322,-2.25971 5.31234,-5.33368 0.0971,-0.21956 0.18919,-0.43393 0.27735,-0.66138 0.0882,-0.22744 0.17768,-0.46975 0.25602,-0.70403 0.41396,-1.23798 1.3691,-3.03921 2.13347,-4.01095 0.77253,-0.9821 1.40809,-2.79785 1.40809,-4.07492 l 0,-2.28281 -32.7701,0 z M -35.658545,458.3695 c -0.192074,0.0774 0.976474,2.89348 3.477556,8.06453 19.016898,39.3179 51.500775,62.92502 92.421914,67.20437 7.856513,0.8216 24.204722,0.33239 31.959382,-0.96006 37.221293,-6.20361 69.245673,-30.62857 86.704213,-66.1163 4.67285,-9.49844 4.88559,-11.18258 0.32002,-2.5815 -4.67388,8.80516 -10.05951,16.14097 -17.72913,24.17223 -1.38104,1.44616 -2.76255,2.81931 -4.1176,4.13894 -4.7427,4.6187 -9.38413,8.50548 -14.31558,11.94745 -0.70449,0.49171 -1.3946,0.9763 -2.11214,1.45075 -4.30525,2.84678 -8.86685,5.41201 -13.93156,7.85119 -3.24793,1.5642 -6.48586,2.95704 -9.70728,4.20293 -1.07381,0.4153 -2.14693,0.81397 -3.22154,1.19475 -12.89529,4.56928 -25.900334,6.66401 -40.663936,6.65643 -16.690958,-0.009 -30.914078,-2.7233 -46.082953,-8.78991 -19.2438102,-7.69633 -36.1028373,-20.34698 -48.792456,-36.3757 -0.528732,-0.66786 -1.043264,-1.32597 -1.557433,-2.00546 -3.599168,-4.75641 -6.850623,-9.80216 -9.685954,-15.08364 -1.84908,-3.44436 -2.816132,-5.03122 -2.965523,-4.971 z"
         id="path2850" />
    </g>
  </g>
</svg>
