<?xml version="1.0" encoding="UTF-8" standalone="no"?>
<!-- Generator: Adobe Illustrator 13.0.1, SVG Export Plug-In . SVG Version: 6.00 Build 14948)  -->
<svg xmlns:dc="http://purl.org/dc/elements/1.1/" xmlns:cc="http://web.resource.org/cc/" xmlns:rdf="http://www.w3.org/1999/02/22-rdf-syntax-ns#" xmlns:svg="http://www.w3.org/2000/svg" xmlns="http://www.w3.org/2000/svg" xmlns:sodipodi="http://sodipodi.sourceforge.net/DTD/sodipodi-0.dtd" xmlns:inkscape="http://www.inkscape.org/namespaces/inkscape" version="1.1" id="Layer_1" x="0px" y="0px" width="70.21px" height="73.279px" viewBox="0 0 70.21 73.279" enable-background="new 0 0 70.21 73.279" xml:space="preserve" sodipodi:version="0.32" inkscape:version="0.45.1" sodipodi:docname="warner bros.svg" inkscape:output_extension="org.inkscape.output.svg.inkscape" sodipodi:docbase="C:\Documents and Settings\Mendaliv\Desktop"><metadata id="metadata20"><rdf:RDF><cc:Work rdf:about=""><dc:format>image/svg+xml</dc:format><dc:type rdf:resource="http://purl.org/dc/dcmitype/StillImage"/></cc:Work></rdf:RDF></metadata><defs id="defs18">
	
	
	
	
	
	
</defs><sodipodi:namedview inkscape:window-height="579" inkscape:window-width="748" inkscape:pageshadow="2" inkscape:pageopacity="0.0" guidetolerance="10.0" gridtolerance="10.0" objecttolerance="10.0" borderopacity="1.0" bordercolor="#666666" pagecolor="#ffffff" id="base" inkscape:zoom="5.1583674" inkscape:cx="35.105" inkscape:cy="36.6395" inkscape:window-x="88" inkscape:window-y="92" inkscape:current-layer="Layer_1"/>
<path style="fill: rgb(0, 122, 194);" d="M 35.09375 0 C 33.37875 0.366 18.28525 2.3422501 16.40625 3.28125 C 15.97325 4.14825 15.06825 6.8532501 14.78125 7.28125 C 13.56825 7.54225 8.6527504 8.47725 8.34375 8.65625 C 8.17075 9.17625 7.0412499 11.39625 6.78125 11.65625 C 5.74025 11.91625 0.88724998 12.816 0.28125 13.25 C -0.064749995 15.33 -1.38575 36.143001 7.28125 49.75 C 15.94825 63.357 31.106749 72.41425 35.09375 73.28125 L 35.125 73.28125 C 39.112 72.41425 54.239252 63.357001 62.90625 49.75 C 71.57225 36.142 70.285501 15.33 69.9375 13.25 C 69.3305 12.816 64.476501 11.91625 63.4375 11.65625 C 63.1775 11.39625 62.048998 9.1762499 61.875 8.65625 C 61.567 8.47725 56.6525 7.5412501 55.4375 7.28125 C 55.1505 6.85325 54.2465 4.1482501 53.8125 3.28125 C 51.9395 2.34525 36.83275 0.373 35.09375 0 z M 35.09375 5.3125 C 36.579751 5.6305002 49.49275 7.35625 51.09375 8.15625 C 51.462749 8.8972502 52.22475 11.1965 52.46875 11.5625 C 53.505749 11.7845 57.736 12.56575 58 12.71875 C 58.147999 13.16275 59.0895 15.0905 59.3125 15.3125 C 60.201499 15.5345 64.357 16.28625 64.875 16.65625 C 65.171999 18.43425 66.283 36.21375 58.875 47.84375 C 51.466999 59.474749 38.533 67.22875 35.125 67.96875 L 35.09375 67.96875 C 31.685751 67.228747 18.75175 59.47375 11.34375 47.84375 C 3.9367501 36.21375 5.04775 18.43425 5.34375 16.65625 C 5.86275 16.28525 10.01725 15.5345 10.90625 15.3125 C 11.12925 15.0905 12.07075 13.16275 12.21875 12.71875 C 12.48275 12.56575 16.68175 11.7845 17.71875 11.5625 C 17.963749 11.1965 18.755 8.89725 19.125 8.15625 C 20.730001 7.3532503 33.62775 5.6245 35.09375 5.3125 z " id="path5"/><path style="fill: rgb(0, 122, 194);" d="M 37.46875 11 C 36.98186 11.048 36.909251 11.38875 36.90625 11.53125 C 36.80625 28.17725 36.85375 45.836502 36.71875 62.9375 C 36.82875 63.478499 37.691499 62.646999 38.1875 62.375 C 44.501499 58.903999 64.195 39.831 52.875 33 C 61.542999 27.332 59.998249 21.922749 56.15625 18.96875 C 48.212249 12.85775 39.14875 11.3405 38.09375 11.0625 C 37.83 10.993 37.631047 10.984 37.46875 11 z M 42.75 17.84375 C 42.872999 17.776751 47.965 19.6645 50.75 21.5625 C 53.942999 23.7385 52.862 25.82975 51 27.09375 C 49.989 27.78275 43.7325 32.27625 42.6875 32.53125 C 42.664498 31.664249 42.66 21.88775 42.75 17.84375 z M 47.40625 36.875 C 48.103828 36.896469 48.7665 37.1195 49.25 37.625 C 49.682 38.038001 51.58625 40.09075 47.53125 45.96875 C 46.021251 48.63475 42.855 51.9785 42.5 52.3125 C 42.456998 52.324501 42.43925 52.25825 42.40625 52.28125 C 42.439249 50.370252 42.388 41.11925 42.5 38.53125 C 42.72425 38.414249 45.313516 36.810593 47.40625 36.875 z " id="path9"/><path style="fill: rgb(0, 122, 194);" id="path15" d="M 15.944,16.994 C 15.425,17.216 11.004,20.031 10.559,20.475 C 10.436,24.399 11.488,34.986 15.363,43.249 C 15.853,44.294 16.385,45.274 16.961,46.161 C 18.066,48.069 18.128,47.918 19.414,46.091 C 20.305,44.886 21.59,43.099 21.912,42.731 C 22.356,44.212 25.227,53.45 29.265,59.033 C 31.055,61.51 33.804,63.85 33.793,62.886 C 33.683,53.453 33.413,12.621 33.709,10.957 C 32.518,10.929 28.611,11.438 27.838,11.839 C 27.774,13.332 28.375,41.33 28.005,44.514 C 25.268,37.846 24.334,20.25 24.875,12.99 C 23.394,13.286 19.782,14.735 19.264,15.254 C 18.598,16.587 19.507,31.207 20.453,36.114 C 20.13,36.623 19.199,38.005 19.051,38.227 C 17.177,34.856 15.386,24.434 15.944,16.994 z "/>
</svg>